<svg width="1024" height="1024" viewBox="0 0 1024 1024" xmlns="http://www.w3.org/2000/svg">
<rect width="1024" height="1024" rx="184" fill="#F8FAFC"/>
<polygon points="512.0,327.68 593.92,368.64 512.0,409.6 430.08,368.64" fill="#E2E8F0"/>
<polygon points="430.08,368.64 512.0,409.6 430.08,450.56 348.16,409.6" fill="#14B8A6"/>
<polygon points="593.92,368.64 675.84,409.6 593.92,450.56 512.0,409.6" fill="#E2E8F0"/>
<polygon points="512.0,409.6 593.92,450.56 512.0,491.52 430.08,450.56" fill="#E2E8F0"/>
<polygon points="348.16,409.6 430.08,450.56 430.08,532.48 348.16,491.52" fill="#64748B"/>
<polygon points="348.16,491.52 430.08,532.48 430.08,614.4 348.16,573.44" fill="#64748B"/>
<polygon points="430.08,450.56 512.0,491.52 512.0,573.44 430.08,532.48" fill="#64748B"/>
<polygon points="430.08,532.48 512.0,573.44 512.0,655.36 430.08,614.4" fill="#84CC16"/>
<polygon points="675.84,409.6 593.92,450.56 593.92,532.48 675.84,491.52" fill="#F59E0B"/>
<polygon points="675.84,491.52 593.92,532.48 593.92,614.4 675.84,573.44" fill="#334155"/>
<polygon points="593.92,450.56 512.0,491.52 512.0,573.44 593.92,532.48" fill="#334155"/>
<polygon points="593.92,532.48 512.0,573.44 512.0,655.36 593.92,614.4" fill="#334155"/>
<polygon points="512.0,327.68 675.84,409.6 512.0,491.52 348.16,409.6" fill="none" stroke="#0F172A" stroke-width="12" stroke-linejoin="round"/>
<polygon points="348.16,409.6 512.0,491.52 512.0,655.36 348.16,573.44" fill="none" stroke="#0F172A" stroke-width="12" stroke-linejoin="round"/>
<polygon points="675.84,409.6 512.0,491.52 512.0,655.36 675.84,573.44" fill="none" stroke="#0F172A" stroke-width="12" stroke-linejoin="round"/>
</svg>
