<svg width="512" height="512" viewBox="0 0 512 512" xmlns="http://www.w3.org/2000/svg">
<rect width="512" height="512" rx="92" fill="#F8FAFC"/>
<polygon points="256.0,163.84 296.96,184.32 256.0,204.8 215.04,184.32" fill="#E2E8F0"/>
<polygon points="215.04,184.32 256.0,204.8 215.04,225.28 174.08,204.8" fill="#14B8A6"/>
<polygon points="296.96,184.32 337.92,204.8 296.96,225.28 256.0,204.8" fill="#E2E8F0"/>
<polygon points="256.0,204.8 296.96,225.28 256.0,245.76 215.04,225.28" fill="#E2E8F0"/>
<polygon points="174.08,204.8 215.04,225.28 215.04,266.24 174.08,245.76" fill="#64748B"/>
<polygon points="174.08,245.76 215.04,266.24 215.04,307.2 174.08,286.72" fill="#64748B"/>
<polygon points="215.04,225.28 256.0,245.76 256.0,286.72 215.04,266.24" fill="#64748B"/>
<polygon points="215.04,266.24 256.0,286.72 256.0,327.68 215.04,307.2" fill="#84CC16"/>
<polygon points="337.92,204.8 296.96,225.28 296.96,266.24 337.92,245.76" fill="#F59E0B"/>
<polygon points="337.92,245.76 296.96,266.24 296.96,307.2 337.92,286.72" fill="#334155"/>
<polygon points="296.96,225.28 256.0,245.76 256.0,286.72 296.96,266.24" fill="#334155"/>
<polygon points="296.96,266.24 256.0,286.72 256.0,327.68 296.96,307.2" fill="#334155"/>
<polygon points="256.0,163.84 337.92,204.8 256.0,245.76 174.08,204.8" fill="none" stroke="#0F172A" stroke-width="6" stroke-linejoin="round"/>
<polygon points="174.08,204.8 256.0,245.76 256.0,327.68 174.08,286.72" fill="none" stroke="#0F172A" stroke-width="6" stroke-linejoin="round"/>
<polygon points="337.92,204.8 256.0,245.76 256.0,327.68 337.92,286.72" fill="none" stroke="#0F172A" stroke-width="6" stroke-linejoin="round"/>
</svg>
